<svg id="Layer_1" data-name="Layer 1" xmlns="http://www.w3.org/2000/svg" viewBox="0 0 533.34 270.1"><defs><style>.cls-1{fill:#efa21b;}</style></defs><polygon class="cls-1" points="526.2 118.74 533.2 55.74 468.66 77.14 483.74 88.05 440.93 143.17 420.47 82.29 373.7 82.29 411.45 174.18 331 269.63 376.5 269.63 427.59 205.83 449.7 269.63 497.24 269.63 456.95 172.66 511.05 107.79 526.2 118.74"/><polygon class="cls-1" points="344.17 108.74 349.93 82.29 311.04 82.29 305.27 108.74 344.17 108.74"/><polygon class="cls-1" points="304.09 115.74 271.26 269.63 310.15 269.63 342.98 115.74 304.09 115.74"/><path class="cls-1" d="M85.82,83.59C119.61,50,166.75,37.75,212.62,31.36c48.55-6.77,98-6.65,146.85-3.81,41.57,2.41,83,7,124.18,13.28,16.61,2.53,33.23,5.21,49.69,8.6C324.88-20.71,181.56-3.49,114.2,23.74c-51,20.6-99.11,66.47-111.57,121.84-11.48,51,15.47,101.22,64.9,117.3,17.17,5.59,36.56,8.41,54.65,6.75l28.21-133.07,48.3,133.07h39.15L277.62,82.29H241.14L213.31,213.07,166.54,82.29H125.48S94.3,229.74,94.2,229.74A40.58,40.58,0,0,1,79,227.19c-18.82-5.34-31.29-23.67-36.48-41.65-6.3-21.81.78-44.5,12-63.42C63.08,107.69,74,95.35,85.82,83.59Z"/></svg>